<?xml version="1.0" encoding="UTF-8"?>
<svg id="Layer_2" data-name="Layer 2" xmlns="http://www.w3.org/2000/svg" viewBox="0 0 16.28 8.82">
  <defs>
    <style>
      .cls-1 {
        fill: #da00bd;
      }

      .cls-1, .cls-2, .cls-3 {
        stroke: #000;
        stroke-miterlimit: 10;
        stroke-width: .2px;
      }

      .cls-2 {
        fill: #0d6eb6;
      }

      .cls-3 {
        fill: #4a8f43;
      }
    </style>
  </defs>
  <g id="Layer_1-2" data-name="Layer 1">
    <g>
      <path class="cls-3" d="m11.7.1h-1.93c-.17,0-.32.1-.37.26l-2.25,6.07c-.07.2-.26.33-.47.33h-2.9c-.34,0-.53-.4-.3-.66l3.47-4.04c.06-.07.1-.17.1-.26V.5c0-.22-.18-.4-.4-.4H.5C.28.1.1.28.1.5v1.16c0,.22.18.4.4.4h2.9c.34,0,.53.4.3.66L.24,6.79c-.06.07-.1.16-.1.26v1.27c0,.22.18.4.4.4h7.04c.6,0,1.14-.38,1.33-.95l.13-.37c.06-.16.21-.27.38-.27h2.45c.17,0,.33.11.38.27l.34,1.05c.05.16.21.27.38.27h1.59c.28,0,.47-.28.38-.54L12.08.36c-.06-.16-.21-.26-.38-.26Zm-1.4,5.23c-.27,0-.47-.27-.38-.53l.42-1.24c.11-.31.55-.31.65,0l.41,1.24c.09.26-.11.52-.38.52h-.72Z"/>
      <path class="cls-2" d="m12.31.1h-1.93c-.17,0-.32.1-.37.26l-2.25,6.07c-.07.2-.26.33-.47.33h-2.9c-.34,0-.53-.4-.3-.66l3.47-4.04c.06-.07.1-.17.1-.26V.5c0-.22-.18-.4-.4-.4H1.11c-.22,0-.4.18-.4.4v1.16c0,.22.18.4.4.4h2.9c.34,0,.53.4.3.66L.85,6.79c-.06.07-.1.16-.1.26v1.27c0,.22.18.4.4.4h7.04c.6,0,1.14-.38,1.33-.95l.13-.37c.06-.16.21-.27.38-.27h2.45c.17,0,.33.11.38.27l.34,1.05c.05.16.21.27.38.27h1.59c.28,0,.47-.28.38-.54L12.69.36c-.06-.16-.21-.26-.38-.26Zm-1.4,5.23c-.27,0-.47-.27-.38-.53l.42-1.24c.11-.31.55-.31.65,0l.41,1.24c.09.26-.11.52-.38.52h-.72Z"/>
      <path class="cls-1" d="m12.92.1h-1.93c-.17,0-.32.1-.37.26l-2.25,6.07c-.07.2-.26.33-.47.33h-2.9c-.34,0-.53-.4-.3-.66l3.47-4.04c.06-.07.1-.17.1-.26V.5c0-.22-.18-.4-.4-.4H1.72c-.22,0-.4.18-.4.4v1.16c0,.22.18.4.4.4h2.9c.34,0,.53.4.3.66L1.46,6.79c-.06.07-.1.16-.1.26v1.27c0,.22.18.4.4.4h7.04c.6,0,1.14-.38,1.33-.95l.13-.37c.06-.16.21-.27.38-.27h2.45c.17,0,.33.11.38.27l.34,1.05c.05.16.21.27.38.27h1.59c.28,0,.47-.28.38-.54L13.3.36c-.06-.16-.21-.26-.38-.26Zm-1.4,5.23c-.27,0-.47-.27-.38-.53l.42-1.24c.11-.31.55-.31.65,0l.41,1.24c.09.26-.11.52-.38.52h-.72Z"/>
    </g>
  </g>
</svg>